# xmcd CD database file
#
# Track frame offsets:
#	150
#	25847
#	43427
#	57420
#	70020
#	84892
#	101650
#	112937
#	125125
#	135367
#	155285
#	165392
#	184657
#	210182
#	235107
#	245770
#	257930
#	272115
#	288730
#	304765
#	317447
#	329992
#
# Disc length: 4619 seconds
#
# Revision: 0
# Processed by: cddbd v1.5.1PL2 Copyright (c) Steve Scherf et al.
# Submitted via: CDex 1.51
#
DISCID=3d120916
DTITLE=The Style Council - Cafe Blue -The Style Council CAFE Best-
DYEAR=2002
DGENRE=Jazz
TTITLE0=My Ever Changing Moods [12 Inch Version]
TTITLE1=With Everything To Lose
TTITLE2=Me Ship Came In!
TTITLE3=Headstart For Happiness
TTITLE4=(When You) Call Me
TTITLE5=The Piccadilly Trail
TTITLE6=It Just Came To Pieces In My Hands
TTITLE7=Down In The Seine
TTITLE8=Blue Cafe
TTITLE9=The Paris Match [Album Version]
TTITLE10=All Gone Away
TTITLE11=How She Threw It All Away
TTITLE12=You're The Best Thing
TTITLE13=It's A Very Deep Sea
TTITLE14=Spring, Summer, Autumn
TTITLE15=The Whole Point Of No Return
TTITLE16=Spin' Drifting
TTITLE17=The Story Of Someone's Shoe
TTITLE18=Blood Sports
TTITLE19=The Whole Point II
TTITLE20=Le Depart
TTITLE21=My Ever Changing Moods [Album Version]
EXTD=YEAR: 2002
EXTT0=
EXTT1=
EXTT2=
EXTT3=
EXTT4=
EXTT5=
EXTT6=
EXTT7=
EXTT8=
EXTT9=
EXTT10=
EXTT11=
EXTT12=
EXTT13=
EXTT14=
EXTT15=
EXTT16=
EXTT17=
EXTT18=
EXTT19=
EXTT20=
EXTT21=
PLAYORDER=
